<?xml version="1.0" encoding="UTF-8" standalone="no"?>
<!-- Created with Inkscape (http://www.inkscape.org/) -->

<svg
   width="199.99968mm"
   height="200.0002mm"
   viewBox="0 0 199.99968 200.0002"
   version="1.1"
   id="svg1"
   xmlns="http://www.w3.org/2000/svg"
   xmlns:svg="http://www.w3.org/2000/svg">
  <defs
     id="defs1" />
  <g
     id="layer1"
     transform="translate(-10.653613,-48.499882)">
    <path
       id="path1"
       style="font-variation-settings:normal;opacity:1;vector-effect:none;fill:#ffffff;fill-opacity:1;stroke-width:0.317261;stroke-linecap:butt;stroke-linejoin:miter;stroke-miterlimit:4;stroke-dasharray:none;stroke-dashoffset:0;stroke-opacity:1;-inkscape-stroke:none;stop-color:#000000;stop-opacity:1"
       d="M 110.65371,48.499882 A 100,100 0 0 0 10.653613,148.49998 100,100 0 0 0 110.65371,248.50008 100,100 0 0 0 210.65329,148.49998 100,100 0 0 0 110.65371,48.499882 Z m 0,25.000024 a 75,75 0 0 1 74.99956,75.000074 75,75 0 0 1 -74.99956,75.00007 75,75 0 0 1 -75.000072,-75.00007 75,75 0 0 1 75.000072,-75.000074 z" />
    <path
       id="path1-3"
       style="font-variation-settings:normal;vector-effect:none;fill:#ffffff;fill-opacity:1;stroke-width:0.158631;stroke-linecap:butt;stroke-linejoin:miter;stroke-miterlimit:4;stroke-dasharray:none;stroke-dashoffset:0;stroke-opacity:1;-inkscape-stroke:none;stop-color:#000000"
       d="m 110.65371,98.499931 a 50,50 0 0 0 -50.000048,50.000049 50,50 0 0 0 50.000048,50.00005 50,50 0 0 0 49.99953,-50.00005 50,50 0 0 0 -49.99953,-50.000049 z m 0,25.000029 A 25,25 0 0 1 135.65322,148.49998 25,25 0 0 1 110.65371,173.5 25,25 0 0 1 85.653687,148.49998 25,25 0 0 1 110.65371,123.49996 Z" />
  </g>
</svg>
